<svg width="331" height="226" viewBox="0 0 331 226" fill="none" xmlns="http://www.w3.org/2000/svg">
<path d="M24.38 135.97C24.38 138.807 25.3 141.145 27.14 142.985C28.98 144.825 31.3183 146.397 34.155 147.7C37.0683 149.003 40.135 150.345 43.355 151.725C46.575 153.028 49.6033 154.6 52.44 156.44C55.3533 158.203 57.73 160.465 59.57 163.225C61.41 165.985 62.33 169.512 62.33 173.805C62.33 178.635 61.1033 182.813 58.65 186.34C56.1967 189.79 52.8617 192.473 48.645 194.39C44.505 196.23 39.7517 197.15 34.385 197.15C30.245 197.15 26.4117 196.652 22.885 195.655C19.3583 194.582 16.33 193.202 13.8 191.515L10.925 195.885H6.9C7.13 193.278 7.20667 190.518 7.13 187.605C7.13 184.615 7.05333 181.663 6.9 178.75C6.74667 175.837 6.555 173.192 6.325 170.815L10.235 169.665C11.9217 175.492 14.1067 180.092 16.79 183.465C19.4733 186.762 22.3483 189.1 25.415 190.48C28.5583 191.86 31.51 192.55 34.27 192.55C37.4133 192.55 40.3267 192.013 43.01 190.94C45.6933 189.867 47.84 188.295 49.45 186.225C51.1367 184.078 51.98 181.395 51.98 178.175C51.98 175.108 51.06 172.578 49.22 170.585C47.38 168.515 45.0033 166.752 42.09 165.295C39.2533 163.838 36.225 162.42 33.005 161.04C29.785 159.66 26.7183 158.088 23.805 156.325C20.9683 154.485 18.63 152.262 16.79 149.655C14.95 147.048 14.03 143.79 14.03 139.88C14.03 135.357 15.2183 131.447 17.595 128.15C19.9717 124.777 23.23 122.208 27.37 120.445C31.51 118.682 36.225 117.8 41.515 117.8C44.965 117.8 48.07 118.26 50.83 119.18C53.6667 120.1 56.3117 121.518 58.765 123.435L61.755 118.95H65.78C65.55 122.86 65.4733 126.77 65.55 130.68C65.6267 134.513 65.8183 138.232 66.125 141.835L62.1 142.985C61.18 138.692 59.915 135.203 58.305 132.52C56.695 129.837 54.8933 127.767 52.9 126.31C50.9833 124.853 48.99 123.857 46.92 123.32C44.9267 122.707 43.01 122.4 41.17 122.4C35.9567 122.4 31.855 123.742 28.865 126.425C25.875 129.032 24.38 132.213 24.38 135.97ZM129.654 184.385L133.219 186.34C131.302 190.327 129.232 193.125 127.009 194.735C124.785 196.345 122.332 197.15 119.649 197.15C116.812 197.15 114.474 196.383 112.634 194.85C110.794 193.24 109.797 190.71 109.644 187.26C107.957 190.173 105.657 192.55 102.744 194.39C99.9069 196.23 96.4952 197.15 92.5085 197.15C87.3719 197.15 83.6918 195.617 81.4685 192.55C79.2452 189.483 78.4785 185.42 79.1685 180.36L83.6535 147.355L82.9635 146.55H74.7985L75.3735 142.525C78.5168 142.525 81.6218 142.487 84.6885 142.41C87.7552 142.333 90.8219 142.142 93.8885 141.835L94.5785 142.525L89.4035 180.475C89.0968 182.545 89.0968 184.423 89.4035 186.11C89.7102 187.797 90.3618 189.177 91.3585 190.25C92.4318 191.247 93.8885 191.745 95.7285 191.745C99.4852 191.745 102.82 189.79 105.734 185.88C108.724 181.97 110.717 176.565 111.714 169.665L114.934 147.355L114.244 146.55H106.079L106.654 142.525C109.797 142.525 112.902 142.487 115.969 142.41C119.035 142.333 122.102 142.142 125.169 141.835L125.859 142.525L119.879 184.615C119.572 187.068 119.649 188.87 120.109 190.02C120.645 191.17 121.412 191.745 122.409 191.745C123.712 191.745 124.939 191.055 126.089 189.675C127.315 188.295 128.504 186.532 129.654 184.385ZM196.387 184.385L199.952 186.34C198.112 190.327 196.042 193.125 193.742 194.735C191.518 196.345 189.065 197.15 186.382 197.15C182.932 197.15 180.248 196 178.332 193.7C176.415 191.323 175.84 187.567 176.607 182.43L180.287 158.97C180.593 157.053 180.67 155.175 180.517 153.335C180.363 151.418 179.788 149.885 178.792 148.735C177.795 147.508 176.108 146.895 173.732 146.895C172.352 146.895 170.818 147.202 169.132 147.815C167.445 148.352 165.758 149.348 164.072 150.805C162.462 152.262 161.005 154.332 159.702 157.015C158.475 159.698 157.555 163.148 156.942 167.365L153.032 196H142.682L149.467 147.355L148.777 146.55H140.957L141.532 142.525C144.522 142.525 147.435 142.487 150.272 142.41C153.108 142.333 156.06 142.18 159.127 141.95L159.817 142.755L158.552 150.69H159.357C160.967 148.16 163.19 145.975 166.027 144.135C168.94 142.295 172.467 141.375 176.607 141.375C181.973 141.375 185.845 142.908 188.222 145.975C190.675 149.042 191.518 153.105 190.752 158.165L186.612 184.615C186.305 187.068 186.382 188.87 186.842 190.02C187.378 191.17 188.183 191.745 189.257 191.745C190.483 191.745 191.672 191.055 192.822 189.675C194.048 188.295 195.237 186.532 196.387 184.385ZM263.096 184.385L266.661 186.34C264.821 190.327 262.751 193.125 260.451 194.735C258.227 196.345 255.774 197.15 253.091 197.15C249.641 197.15 246.957 196 245.041 193.7C243.124 191.323 242.549 187.567 243.316 182.43L246.996 158.97C247.302 157.053 247.379 155.175 247.226 153.335C247.072 151.418 246.497 149.885 245.501 148.735C244.504 147.508 242.817 146.895 240.441 146.895C239.061 146.895 237.527 147.202 235.841 147.815C234.154 148.352 232.467 149.348 230.781 150.805C229.171 152.262 227.714 154.332 226.411 157.015C225.184 159.698 224.264 163.148 223.651 167.365L219.741 196H209.391L216.176 147.355L215.486 146.55H207.666L208.241 142.525C211.231 142.525 214.144 142.487 216.981 142.41C219.817 142.333 222.769 142.18 225.836 141.95L226.526 142.755L225.261 150.69H226.066C227.676 148.16 229.899 145.975 232.736 144.135C235.649 142.295 239.176 141.375 243.316 141.375C248.682 141.375 252.554 142.908 254.931 145.975C257.384 149.042 258.227 153.105 257.461 158.165L253.321 184.615C253.014 187.068 253.091 188.87 253.551 190.02C254.087 191.17 254.892 191.745 255.966 191.745C257.192 191.745 258.381 191.055 259.531 189.675C260.757 188.295 261.946 186.532 263.096 184.385ZM290.13 225.9C286.68 225.9 283.651 225.287 281.045 224.06C278.515 222.91 276.521 221.338 275.065 219.345C273.608 217.352 272.88 215.128 272.88 212.675C272.88 210.452 273.493 208.535 274.72 206.925C275.946 205.315 277.556 204.51 279.55 204.51C281.16 204.51 282.386 205.008 283.23 206.005C284.15 207.002 284.61 208.267 284.61 209.8C284.61 211.563 284.035 213.173 282.885 214.63C281.811 216.163 280.431 217.083 278.745 217.39C279.741 218.617 281.121 219.652 282.885 220.495C284.648 221.415 286.718 221.875 289.095 221.875C292.468 221.875 295.343 220.955 297.72 219.115C300.096 217.352 302.051 214.553 303.585 210.72C305.118 206.887 306.306 201.903 307.15 195.77L308.3 188.065C306.613 190.672 304.351 192.857 301.515 194.62C298.755 196.307 295.458 197.15 291.625 197.15C286.488 197.15 282.808 195.617 280.585 192.55C278.361 189.483 277.595 185.42 278.285 180.36L282.77 147.355L282.08 146.55H273.915L274.49 142.525C277.633 142.525 280.738 142.487 283.805 142.41C286.871 142.333 289.938 142.142 293.005 141.835L293.695 142.525L288.52 180.475C288.213 182.545 288.213 184.423 288.52 186.11C288.826 187.797 289.478 189.177 290.475 190.25C291.548 191.247 293.005 191.745 294.845 191.745C297.375 191.745 299.713 190.902 301.86 189.215C304.006 187.452 305.885 184.922 307.495 181.625C309.105 178.328 310.216 174.38 310.83 169.78L313.935 147.355L313.245 146.55H305.08L305.655 142.525C308.798 142.525 311.903 142.487 314.97 142.41C318.113 142.333 321.218 142.142 324.285 141.835L324.86 142.525L317.5 196C316.963 200.063 316.005 203.858 314.625 207.385C313.245 210.988 311.405 214.17 309.105 216.93C306.881 219.767 304.198 221.952 301.055 223.485C297.911 225.095 294.27 225.9 290.13 225.9Z" fill="#936662"/>
<path d="M115.52 108C114.8 108 114.24 107.813 113.84 107.44C113.467 107.04 113.28 106.48 113.28 105.76V82.04C113.28 81.32 113.467 80.7733 113.84 80.4C114.24 80 114.8 79.8 115.52 79.8H123.24C127.88 79.8 131.453 81.0133 133.96 83.44C136.493 85.84 137.76 89.32 137.76 93.88C137.76 96.1467 137.44 98.16 136.8 99.92C136.16 101.68 135.213 103.16 133.96 104.36C132.733 105.533 131.227 106.44 129.44 107.08C127.653 107.693 125.587 108 123.24 108H115.52ZM117.44 104.52H123C124.76 104.52 126.28 104.307 127.56 103.88C128.867 103.427 129.96 102.76 130.84 101.88C131.72 101 132.373 99.8933 132.8 98.56C133.227 97.2267 133.44 95.6667 133.44 93.88C133.44 90.3333 132.56 87.68 130.8 85.92C129.067 84.16 126.467 83.28 123 83.28H117.44V104.52ZM151.359 108.36C149.386 108.36 147.679 107.947 146.239 107.12C144.826 106.293 143.719 105.12 142.919 103.6C142.119 102.08 141.719 100.293 141.719 98.24C141.719 96.6667 141.946 95.2667 142.399 94.04C142.852 92.8133 143.492 91.76 144.319 90.88C145.172 89.9733 146.186 89.2933 147.359 88.84C148.559 88.36 149.892 88.12 151.359 88.12C153.306 88.12 154.986 88.5333 156.399 89.36C157.839 90.1867 158.959 91.36 159.759 92.88C160.559 94.3733 160.959 96.16 160.959 98.24C160.959 99.7867 160.732 101.187 160.279 102.44C159.826 103.693 159.172 104.76 158.319 105.64C157.492 106.52 156.479 107.2 155.279 107.68C154.106 108.133 152.799 108.36 151.359 108.36ZM151.359 105.24C152.452 105.24 153.412 104.973 154.239 104.44C155.066 103.907 155.706 103.12 156.159 102.08C156.639 101.04 156.879 99.76 156.879 98.24C156.879 95.9467 156.372 94.2133 155.359 93.04C154.346 91.8667 153.012 91.28 151.359 91.28C150.239 91.28 149.266 91.5467 148.439 92.08C147.612 92.5867 146.959 93.36 146.479 94.4C146.026 95.44 145.799 96.72 145.799 98.24C145.799 100.507 146.306 102.24 147.319 103.44C148.332 104.64 149.679 105.24 151.359 105.24ZM174.096 108.36C172.096 108.36 170.363 107.947 168.896 107.12C167.456 106.267 166.336 105.08 165.536 103.56C164.736 102.013 164.336 100.2 164.336 98.12C164.336 96.5733 164.563 95.1867 165.016 93.96C165.47 92.7067 166.11 91.6533 166.936 90.8C167.79 89.9467 168.816 89.2933 170.016 88.84C171.243 88.36 172.603 88.12 174.096 88.12C175.03 88.12 176.003 88.2667 177.016 88.56C178.056 88.8267 179.016 89.28 179.896 89.92C180.243 90.1333 180.456 90.4 180.536 90.72C180.643 91.0133 180.656 91.32 180.576 91.64C180.523 91.96 180.376 92.24 180.136 92.48C179.923 92.6933 179.656 92.8267 179.336 92.88C179.016 92.9067 178.67 92.8133 178.296 92.6C177.656 92.1467 177.003 91.8267 176.336 91.64C175.67 91.4267 175.03 91.32 174.416 91.32C173.456 91.32 172.603 91.48 171.856 91.8C171.136 92.0933 170.523 92.5333 170.016 93.12C169.51 93.68 169.123 94.3867 168.856 95.24C168.616 96.0933 168.496 97.0667 168.496 98.16C168.496 100.347 169.003 102.067 170.016 103.32C171.056 104.547 172.523 105.16 174.416 105.16C175.03 105.16 175.67 105.067 176.336 104.88C177.003 104.693 177.656 104.373 178.296 103.92C178.67 103.707 179.016 103.627 179.336 103.68C179.656 103.733 179.91 103.88 180.096 104.12C180.31 104.333 180.443 104.6 180.496 104.92C180.576 105.213 180.563 105.52 180.456 105.84C180.35 106.16 180.123 106.427 179.776 106.64C178.923 107.253 177.99 107.693 176.976 107.96C175.99 108.227 175.03 108.36 174.096 108.36ZM192.938 108.36C190.804 108.36 188.964 107.96 187.418 107.16C185.898 106.333 184.711 105.173 183.858 103.68C183.031 102.16 182.618 100.36 182.618 98.28C182.618 96.2533 183.031 94.48 183.858 92.96C184.684 91.44 185.818 90.2533 187.258 89.4C188.698 88.5467 190.338 88.12 192.178 88.12C193.538 88.12 194.751 88.3467 195.818 88.8C196.884 89.2267 197.791 89.8667 198.538 90.72C199.311 91.5467 199.884 92.56 200.258 93.76C200.658 94.96 200.858 96.3067 200.858 97.8C200.858 98.2533 200.724 98.6 200.458 98.84C200.191 99.0533 199.791 99.16 199.258 99.16H185.818V96.68H198.138L197.458 97.24C197.458 95.9067 197.258 94.7733 196.858 93.84C196.484 92.9067 195.911 92.2 195.138 91.72C194.391 91.2133 193.458 90.96 192.338 90.96C191.084 90.96 190.018 91.2533 189.138 91.84C188.284 92.4267 187.631 93.24 187.178 94.28C186.724 95.32 186.498 96.5333 186.498 97.92V98.16C186.498 100.507 187.044 102.28 188.138 103.48C189.258 104.653 190.871 105.24 192.978 105.24C193.778 105.24 194.618 105.133 195.498 104.92C196.404 104.707 197.258 104.347 198.058 103.84C198.511 103.573 198.911 103.453 199.258 103.48C199.631 103.507 199.924 103.627 200.138 103.84C200.378 104.053 200.524 104.32 200.578 104.64C200.631 104.96 200.578 105.293 200.418 105.64C200.258 105.96 199.978 106.253 199.578 106.52C198.671 107.133 197.618 107.6 196.418 107.92C195.218 108.213 194.058 108.36 192.938 108.36ZM212.102 108.36C210.929 108.36 209.715 108.227 208.462 107.96C207.235 107.693 206.102 107.24 205.062 106.6C204.715 106.36 204.475 106.093 204.342 105.8C204.209 105.507 204.155 105.213 204.182 104.92C204.235 104.6 204.355 104.333 204.542 104.12C204.755 103.88 205.009 103.733 205.302 103.68C205.622 103.627 205.955 103.693 206.302 103.88C207.342 104.467 208.342 104.88 209.302 105.12C210.262 105.333 211.209 105.44 212.142 105.44C213.555 105.44 214.622 105.187 215.342 104.68C216.062 104.173 216.422 103.493 216.422 102.64C216.422 101.947 216.182 101.413 215.702 101.04C215.222 100.64 214.502 100.333 213.542 100.12L209.742 99.36C208.089 99.0133 206.835 98.4 205.982 97.52C205.129 96.64 204.702 95.52 204.702 94.16C204.702 92.9333 205.035 91.8667 205.702 90.96C206.369 90.0533 207.302 89.36 208.502 88.88C209.702 88.3733 211.089 88.12 212.662 88.12C213.835 88.12 214.942 88.2667 215.982 88.56C217.022 88.8533 217.982 89.2933 218.862 89.88C219.209 90.0667 219.435 90.32 219.542 90.64C219.649 90.9333 219.662 91.2267 219.582 91.52C219.529 91.8133 219.395 92.08 219.182 92.32C218.969 92.5333 218.702 92.6667 218.382 92.72C218.089 92.7467 217.755 92.6667 217.382 92.48C216.582 91.9733 215.782 91.6133 214.982 91.4C214.209 91.1867 213.435 91.08 212.662 91.08C211.249 91.08 210.182 91.3467 209.462 91.88C208.769 92.3867 208.422 93.08 208.422 93.96C208.422 94.6267 208.635 95.1733 209.062 95.6C209.489 96.0267 210.155 96.3333 211.062 96.52L214.862 97.28C216.595 97.6267 217.902 98.2133 218.782 99.04C219.689 99.8667 220.142 100.987 220.142 102.4C220.142 104.24 219.409 105.693 217.942 106.76C216.475 107.827 214.529 108.36 212.102 108.36Z" fill="#936662"/>
<path d="M158.168 131.216C157.144 131.216 156.24 130.976 155.456 130.496C154.688 130 154.088 129.296 153.656 128.384C153.224 127.456 153.008 126.376 153.008 125.144C153.008 123.88 153.224 122.8 153.656 121.904C154.088 121.008 154.688 120.312 155.456 119.816C156.24 119.32 157.144 119.072 158.168 119.072C159.192 119.072 160.072 119.328 160.808 119.84C161.56 120.336 162.064 121.008 162.32 121.856H162.056V115.136C162.056 114.736 162.16 114.432 162.368 114.224C162.576 114.016 162.872 113.912 163.256 113.912C163.64 113.912 163.936 114.016 164.144 114.224C164.368 114.432 164.48 114.736 164.48 115.136V129.944C164.48 130.328 164.376 130.632 164.168 130.856C163.96 131.064 163.664 131.168 163.28 131.168C162.896 131.168 162.6 131.064 162.392 130.856C162.184 130.632 162.08 130.328 162.08 129.944V127.832L162.344 128.36C162.088 129.224 161.584 129.92 160.832 130.448C160.096 130.96 159.208 131.216 158.168 131.216ZM158.792 129.344C159.448 129.344 160.024 129.184 160.52 128.864C161.016 128.544 161.4 128.072 161.672 127.448C161.96 126.824 162.104 126.056 162.104 125.144C162.104 123.768 161.8 122.728 161.192 122.024C160.584 121.32 159.784 120.968 158.792 120.968C158.12 120.968 157.536 121.128 157.04 121.448C156.544 121.752 156.152 122.216 155.864 122.84C155.592 123.464 155.456 124.232 155.456 125.144C155.456 126.504 155.76 127.544 156.368 128.264C156.976 128.984 157.784 129.344 158.792 129.344ZM171.628 131.216C170.812 131.216 170.076 131.056 169.42 130.736C168.78 130.416 168.276 129.984 167.908 129.44C167.54 128.896 167.356 128.28 167.356 127.592C167.356 126.728 167.572 126.048 168.004 125.552C168.452 125.04 169.18 124.68 170.188 124.472C171.212 124.248 172.588 124.136 174.316 124.136H175.444V125.624H174.34C173.188 125.624 172.276 125.68 171.604 125.792C170.932 125.904 170.452 126.096 170.164 126.368C169.892 126.624 169.756 126.984 169.756 127.448C169.756 128.056 169.964 128.552 170.38 128.936C170.796 129.304 171.372 129.488 172.108 129.488C172.7 129.488 173.22 129.352 173.668 129.08C174.116 128.792 174.468 128.408 174.724 127.928C174.996 127.448 175.132 126.896 175.132 126.272V123.512C175.132 122.6 174.94 121.944 174.556 121.544C174.172 121.144 173.54 120.944 172.66 120.944C172.148 120.944 171.612 121.008 171.052 121.136C170.508 121.264 169.94 121.48 169.348 121.784C169.076 121.912 168.844 121.952 168.652 121.904C168.46 121.856 168.308 121.752 168.196 121.592C168.084 121.416 168.02 121.232 168.004 121.04C168.004 120.832 168.052 120.632 168.148 120.44C168.26 120.248 168.444 120.104 168.7 120.008C169.404 119.672 170.1 119.432 170.788 119.288C171.476 119.144 172.124 119.072 172.732 119.072C173.804 119.072 174.684 119.24 175.372 119.576C176.076 119.912 176.596 120.424 176.932 121.112C177.268 121.8 177.436 122.688 177.436 123.776V129.944C177.436 130.328 177.34 130.632 177.148 130.856C176.956 131.064 176.676 131.168 176.308 131.168C175.956 131.168 175.676 131.064 175.468 130.856C175.26 130.632 175.156 130.328 175.156 129.944V128.384H175.372C175.244 128.976 175.004 129.488 174.652 129.92C174.316 130.336 173.892 130.656 173.38 130.88C172.868 131.104 172.284 131.216 171.628 131.216Z" fill="#936662" fill-opacity="0.6"/>
<path d="M298.58 55.9925C295.372 54.2353 290.473 53.5702 287.523 54.7514C281.558 57.023 277.411 62.2834 278.715 67.7976C279.259 70.4891 280.879 73.3953 283.651 75.021C286.345 76.611 289.971 76.2583 291.454 73.3595C292.834 70.6832 291.343 67.2379 287.909 67.2594C283.844 67.2737 284.269 71.7285 285.588 72.6264C281.496 70.7061 281.464 64.6203 283.506 61.7241C287.028 56.7083 295.663 58.0362 299.547 62.0493C305.054 67.748 305.168 75.3418 300.553 81.9631C291.529 94.9368 271.149 85.2676 260.463 76.5476C257.167 73.8546 253.346 70.5942 249.204 67.3802C248.333 66.676 247.442 65.9955 246.552 65.36C246.171 65.0812 245.789 64.8024 245.408 64.5236C247.116 65.2316 248.789 65.8562 250.796 65.8348C252.806 65.7997 254.682 65.1693 256.137 63.7492C259.267 60.6885 258.861 56.5479 255.496 54.1157C252.61 52.033 247.499 52.3262 246.688 56.4498C245.776 61.0614 250.065 62.1368 251.433 61.1497C251.791 60.9661 252.083 60.6469 252.197 60.2213C252.41 59.425 251.938 58.6068 251.141 58.3935C250.345 58.1801 249.558 58.6461 249.338 59.4112C248.701 59.1523 248.208 58.7406 247.986 57.8128C247.687 56.5115 248.667 54.8317 249.99 54.5092C253.524 53.6757 256.864 57.19 256.105 59.9147C254.204 66.7334 243.099 62.816 243.037 62.8288C230.135 53.9715 215.195 48.0554 202.906 60.581C202.482 61.0118 203.624 61.8033 203.805 61.6753C206.327 59.9525 207.515 59.1968 210.735 58.4407C212.59 57.9962 215.738 58.4422 217.374 59.5282C218.616 60.3318 219.956 61.4266 220.115 63.4703C220.238 65.1514 218.479 67.6525 215.284 65.5163C213.511 64.3349 212 68.1088 215.645 69.0563C218.536 69.8014 221.537 67.8832 221.911 65.1141C222.72 59.239 216.537 56.8318 210.932 57.3753C223.336 51.7229 237.036 60.6763 248.225 69.4427C248.35 69.5792 252.693 73.5828 253.722 74.9033C256.052 77.8525 256.922 79.2186 256.869 82.1621C256.798 85.7776 254.333 87.7806 251.685 88.2187C246.015 88.7301 248.343 83.939 245.997 83.4134C244.29 83.0295 242.534 84.9135 244.732 88.1362C247.467 92.1506 253.99 92.1914 256.956 88.6453C259.947 85.0618 259.707 81.0687 257.779 77.2265C258.153 77.5327 258.514 77.8353 258.878 78.1241C269.215 86.5003 287.196 97.9841 300.005 87.5255C310.182 79.2015 311.532 63.0681 298.594 55.9962L298.58 55.9925Z" fill="#936662" fill-opacity="0.6"/>
<path d="M222.39 50.9693C223.53 51.2746 224.696 50.6012 225.001 49.4617C225.307 48.3222 224.633 47.1559 223.494 46.8505C222.354 46.5452 221.188 47.2186 220.882 48.3581C220.577 49.4976 221.25 50.6639 222.39 50.9693Z" fill="#936662" fill-opacity="0.6"/>
<path d="M231.894 52.6772C232.6 52.8662 233.324 52.4477 233.513 51.7426C233.702 51.0374 233.284 50.3126 232.579 50.1236C231.873 49.9347 231.149 50.3531 230.96 51.0583C230.771 51.7635 231.189 52.4883 231.894 52.6772Z" fill="#936662" fill-opacity="0.6"/>
<path d="M239.03 57.076C239.359 57.1643 239.708 56.9632 239.796 56.6338C239.884 56.3043 239.683 55.9561 239.354 55.8678C239.024 55.7795 238.676 55.9805 238.588 56.31C238.499 56.6395 238.7 56.9877 239.03 57.076Z" fill="#936662" fill-opacity="0.6"/>
<path d="M263.481 87.9071C262.342 87.6017 261.175 88.2751 260.87 89.4146C260.565 90.5541 261.238 91.7204 262.378 92.0258C263.517 92.3311 264.684 91.6578 264.989 90.5182C265.294 89.3787 264.621 88.2124 263.481 87.9071Z" fill="#936662" fill-opacity="0.6"/>
<path d="M258.653 95.1626C257.939 94.9713 257.208 95.3934 257.017 96.1073C256.826 96.8212 257.248 97.5524 257.962 97.7437C258.676 97.935 259.407 97.5128 259.598 96.7989C259.789 96.085 259.367 95.3539 258.653 95.1626Z" fill="#936662" fill-opacity="0.6"/>
<path d="M251.681 95.8107C251.351 95.7224 251.003 95.9234 250.915 96.2529C250.827 96.5824 251.028 96.9305 251.357 97.0188C251.687 97.1071 252.035 96.9061 252.123 96.5766C252.211 96.2471 252.01 95.899 251.681 95.8107Z" fill="#936662" fill-opacity="0.6"/>
<path d="M109.49 50.9591C110.63 50.6538 111.303 49.4874 110.998 48.3479C110.693 47.2084 109.526 46.535 108.387 46.8404C107.247 47.1457 106.574 48.3121 106.879 49.4516C107.184 50.5911 108.351 51.2644 109.49 50.9591Z" fill="#936662" fill-opacity="0.6"/>
<path d="M99.9853 52.6671C100.699 52.4758 101.121 51.7446 100.934 51.0445C100.746 50.3443 100.011 49.9084 99.2974 50.0997C98.5835 50.291 98.1613 51.0222 98.3526 51.7361C98.5439 52.45 99.2714 52.8584 99.9853 52.6671Z" fill="#936662" fill-opacity="0.6"/>
<path d="M92.8497 57.0658C93.1792 56.9775 93.3802 56.6294 93.292 56.2999C93.2037 55.9704 92.8555 55.7694 92.526 55.8577C92.1965 55.946 91.9954 56.2941 92.0837 56.6236C92.172 56.9531 92.5202 57.1541 92.8497 57.0658Z" fill="#936662" fill-opacity="0.6"/>
<path d="M71.0101 89.4046C70.7047 88.265 69.5384 87.5917 68.3988 87.897C67.2592 88.2024 66.5858 89.3687 66.8912 90.5082C67.1965 91.6477 68.3629 92.3211 69.5024 92.0157C70.642 91.7104 71.3154 90.5441 71.0101 89.4046Z" fill="#936662" fill-opacity="0.6"/>
<path d="M73.2271 95.1524C72.5131 95.3437 72.1047 96.0711 72.296 96.785C72.4873 97.499 73.2184 97.9211 73.9187 97.7334C74.6189 97.5458 75.041 96.8147 74.8497 96.1008C74.6584 95.3869 73.9273 94.9647 73.2271 95.1524Z" fill="#936662" fill-opacity="0.6"/>
<path d="M80.1993 95.8005C79.8698 95.8888 79.6688 96.237 79.7571 96.5665C79.8454 96.896 80.1935 97.097 80.5231 97.0087C80.8526 96.9204 81.0536 96.5722 80.9653 96.2427C80.877 95.9132 80.5288 95.7122 80.1993 95.8005Z" fill="#936662" fill-opacity="0.6"/>
<path d="M88.8336 62.8361C88.8336 62.8361 77.6623 66.727 75.7654 59.9221C75.0096 57.2111 78.3501 53.6967 81.8807 54.5165C83.1996 54.8253 84.1831 56.5188 83.8843 57.8202C83.662 58.7479 83.169 59.1596 82.532 59.4186C82.3086 58.6397 81.5115 58.1911 80.7289 58.4008C79.9463 58.6105 79.4602 59.4323 79.6736 60.2286C79.7876 60.6542 80.0791 60.9734 80.4374 61.157C81.8193 62.1405 86.0939 61.0687 85.182 56.4571C84.3713 52.3335 79.2601 52.0403 76.3747 54.123C73.0091 56.5552 72.6029 60.6959 75.7333 63.7565C77.1881 65.1766 79.0676 65.8207 81.0747 65.8421C83.0854 65.8772 84.7538 65.2389 86.4624 64.5309C86.0809 64.8097 85.6994 65.0885 85.318 65.3673C84.4287 66.0029 83.5469 66.6659 82.666 67.3875C78.524 70.6016 74.7033 73.8619 71.4076 76.5549C60.7209 85.2749 40.3546 94.9405 31.3169 81.9705C26.7026 75.3492 26.8126 67.7416 32.3233 62.0566C36.2072 58.0435 44.8288 56.7193 48.3644 61.7314C50.4059 64.6276 50.3738 70.7134 46.2824 72.6337C47.6016 71.7358 48.0267 67.281 43.9614 67.2667C40.5306 67.259 39.0404 70.7042 40.4161 73.3669C41.8991 76.2656 45.5253 76.6183 48.219 75.0283C50.9913 73.4026 52.625 70.4928 53.1556 67.805C54.463 62.3045 50.299 57.034 44.3476 54.7587C41.397 53.5775 36.4984 54.2427 33.2904 55.9998C20.3621 63.0544 21.7125 79.1878 31.8893 87.5117C44.6982 97.9703 62.6653 86.4903 73.0163 78.1104C73.3804 77.8215 73.7408 77.519 74.1149 77.2127C72.1866 81.0549 71.9469 85.048 74.9378 88.6316C77.904 92.1777 84.4267 92.1368 87.1624 88.1224C89.3597 84.8997 87.6041 83.0158 85.8969 83.3996C83.5646 83.9216 85.8932 88.7126 80.2094 88.205C77.5609 87.7669 75.0828 85.7675 75.0254 82.1484C74.9724 79.2049 75.8425 77.8387 78.1719 74.8896C79.2151 73.5653 83.5439 69.5655 83.6692 69.4289C94.8585 60.6626 108.572 51.7055 120.962 57.3615C115.353 56.8043 109.17 59.2115 109.983 65.1003C110.357 67.8695 113.362 69.8013 116.249 69.0425C119.881 68.0988 118.369 64.3248 116.61 65.5025C113.419 67.6524 111.656 65.1377 111.779 63.4566C111.924 61.4165 113.264 60.3217 114.52 59.5145C116.156 58.4285 119.321 57.9925 121.159 58.427C124.379 59.183 125.567 59.9388 128.089 61.6616C128.27 61.7895 129.408 60.9843 128.988 60.5673C116.695 48.0279 101.759 53.9578 88.8574 62.815L88.8336 62.8361Z" fill="#936662" fill-opacity="0.6"/>
<path d="M182.667 70C183.551 70 184.399 69.6488 185.024 69.0237C185.649 68.3985 186 67.5507 186 66.6666V48.8333C186 47.31 187.053 46.02 188.423 45.3633C191.26 44.0101 193.527 41.6985 194.826 38.8363C196.124 35.9741 196.369 32.7453 195.518 29.7198C194.667 26.6944 192.775 24.0667 190.176 22.3005C187.576 20.5343 184.436 19.7431 181.31 20.0666C180.023 17.074 177.886 14.5243 175.165 12.7328C172.444 10.9412 169.258 9.98645 166 9.98645C162.742 9.98645 159.556 10.9412 156.835 12.7328C154.114 14.5243 151.978 17.074 150.69 20.0666C147.565 19.7454 144.428 20.5376 141.83 22.3038C139.232 24.0699 137.342 26.6964 136.491 29.7203C135.641 32.7442 135.885 35.9712 137.182 38.8325C138.478 41.6937 140.743 44.0054 143.577 45.36C144.947 46.02 146 47.31 146 48.83V66.6666C146 67.5507 146.351 68.3985 146.976 69.0237C147.602 69.6488 148.449 70 149.333 70H182.667Z" stroke="#936662" stroke-opacity="0.6" stroke-width="6" stroke-linecap="round" stroke-linejoin="round"/>
<path d="M146 56.6666H186" stroke="#936662" stroke-opacity="0.6" stroke-width="6" stroke-linecap="round" stroke-linejoin="round"/>
</svg>
